<?xml version="1.0" encoding="utf-8"?>
<svg version="1.1" xmlns:xlink="http://www.w3.org/1999/xlink" width="12px" height="18px" xmlns="http://www.w3.org/2000/svg">
  <g transform="matrix(1 0 0 1 -43 -98 )">
    <path d="M 6.8828125 16.99453125  C 7.12760416666667 16.77421875  7.25 16.509375  7.25 16.2  C 7.25 15.890625  7.12760416666667 15.62578125  6.8828125 15.40546875  C 6.63802083333333 15.18515625  6.34375 15.075  6 15.075  C 5.65625 15.075  5.36197916666667 15.18515625  5.1171875 15.40546875  C 4.87239583333333 15.62578125  4.75 15.890625  4.75 16.2  C 4.75 16.509375  4.87239583333333 16.77421875  5.1171875 16.99453125  C 5.36197916666667 17.21484375  5.65625 17.325  6 17.325  C 6.34375 17.325  6.63802083333333 17.21484375  6.8828125 16.99453125  Z M 10.3515625 14.26640625  C 10.4505208333333 14.17734375  10.5 14.071875  10.5 13.95  L 10.5 4.05  C 10.5 3.928125  10.4505208333333 3.82265625  10.3515625 3.73359375  C 10.2526041666667 3.64453125  10.1354166666667 3.6  10 3.6  L 2 3.6  C 1.86458333333333 3.6  1.74739583333333 3.64453125  1.6484375 3.73359375  C 1.54947916666667 3.82265625  1.5 3.928125  1.5 4.05  L 1.5 13.95  C 1.5 14.071875  1.54947916666667 14.17734375  1.6484375 14.26640625  C 1.74739583333333 14.35546875  1.86458333333333 14.4  2 14.4  L 10 14.4  C 10.1354166666667 14.4  10.2526041666667 14.35546875  10.3515625 14.26640625  Z M 7.25 2.25  C 7.41666666666667 2.25  7.5 2.175  7.5 2.025  C 7.5 1.875  7.41666666666667 1.8  7.25 1.8  L 4.75 1.8  C 4.58333333333333 1.8  4.5 1.875  4.5 2.025  C 4.5 2.175  4.58333333333333 2.25  4.75 2.25  L 7.25 2.25  Z M 11.40625 0.534375  C 11.8020833333333 0.890624999999999  12 1.3125  12 1.8  L 12 16.2  C 12 16.6875  11.8020833333333 17.109375  11.40625 17.465625  C 11.0104166666667 17.821875  10.5416666666667 18  10 18  L 2 18  C 1.45833333333333 18  0.989583333333333 17.821875  0.59375 17.465625  C 0.197916666666667 17.109375  0 16.6875  0 16.2  L 0 1.8  C 0 1.3125  0.197916666666667 0.890624999999999  0.59375 0.534375  C 0.989583333333333 0.178124999999998  1.45833333333333 0  2 0  L 10 0  C 10.5416666666667 0  11.0104166666667 0.178124999999998  11.40625 0.534375  Z " fill-rule="nonzero" fill="#b6b3b3" stroke="none" transform="matrix(1 0 0 1 43 98 )" />
  </g>
</svg>