<?xml version="1.0" encoding="utf-8"?>
<svg version="1.1" xmlns:xlink="http://www.w3.org/1999/xlink" width="18px" height="15px" xmlns="http://www.w3.org/2000/svg">
  <g transform="matrix(1 0 0 1 -441 -8 )">
    <path d="M 7.0921875 6.81941105769231  C 7.6203125 6.31159855769231  8.25625 6.05769230769231  9 6.05769230769231  C 9.74375 6.05769230769231  10.3796875 6.31159855769231  10.9078125 6.81941105769231  C 11.4359375 7.32722355769231  11.7 7.93870192307692  11.7 8.65384615384615  C 11.7 9.36899038461538  11.4359375 9.98046875  10.9078125 10.48828125  C 10.3796875 10.99609375  9.74375 11.25  9 11.25  C 8.25625 11.25  7.6203125 10.99609375  7.0921875 10.48828125  C 6.5640625 9.98046875  6.3 9.36899038461538  6.3 8.65384615384615  C 6.3 7.93870192307692  6.5640625 7.32722355769231  7.0921875 6.81941105769231  Z M 13.5 2.30769230769231  L 15.6 2.30769230769231  C 16.2625 2.30769230769231  16.828125 2.53305288461538  17.296875 2.98377403846154  C 17.765625 3.43449519230769  18 3.97836538461538  18 4.61538461538462  L 18 12.6923076923077  C 18 13.3293269230769  17.765625 13.8731971153846  17.296875 14.3239182692308  C 16.828125 14.7746394230769  16.2625 15  15.6 15  L 2.4 15  C 1.7375 15  1.171875 14.7746394230769  0.703125 14.3239182692308  C 0.234375 13.8731971153846  0 13.3293269230769  0 12.6923076923077  L 0 4.61538461538462  C 0 3.97836538461538  0.234375 3.43449519230769  0.703125 2.98377403846154  C 1.171875 2.53305288461538  1.7375 2.30769230769231  2.4 2.30769230769231  L 4.5 2.30769230769231  L 4.978125 1.08173076923077  C 5.096875 0.787259615384615  5.3140625 0.533353365384615  5.6296875 0.320012019230769  C 5.9453125 0.106670673076925  6.26875 0  6.6 0  L 11.4 0  C 11.73125 0  12.0546875 0.106670673076925  12.3703125 0.320012019230769  C 12.6859375 0.533353365384615  12.903125 0.787259615384615  13.021875 1.08173076923077  L 13.5 2.30769230769231  Z M 6.0328125 11.5069110576923  C 6.8546875 12.2971754807692  7.84375 12.6923076923077  9 12.6923076923077  C 10.15625 12.6923076923077  11.1453125 12.2971754807692  11.9671875 11.5069110576923  C 12.7890625 10.7166466346154  13.2 9.765625  13.2 8.65384615384615  C 13.2 7.54206730769231  12.7890625 6.59104567307692  11.9671875 5.80078125  C 11.1453125 5.01051682692308  10.15625 4.61538461538462  9 4.61538461538462  C 7.84375 4.61538461538462  6.8546875 5.01051682692308  6.0328125 5.80078125  C 5.2109375 6.59104567307692  4.8 7.54206730769231  4.8 8.65384615384615  C 4.8 9.765625  5.2109375 10.7166466346154  6.0328125 11.5069110576923  Z " fill-rule="nonzero" fill="#b7b0b0" stroke="none" transform="matrix(1 0 0 1 441 8 )" />
  </g>
</svg>